PathFileType	4	(X/Y/Z)	s09c0201.trc
DataRate	CameraRate	NumFrames	NumMarkers	Units	OrigDataRate	OrigDataStartFrame	OrigNumFrames
200	200	4	50	mm	200	1750	2000
Frame#	Time	racr			lacr			c7			jug			rlel			rdr			llel			ldr			s2			lic			ric			lasi			rasi			rpsi			lpsi			rgt			lgt			rth1			rth2			rth3			rth4			rlfc			rmfc			rsh1			rsh2			rsh3			rsh4			rlmal			rmmal			rcal			rtoe			rmt5			lth1			lth2			lth4			lth3			llfc			lmfc			llmal			lmmal			lcal			lmt5			lsh1			lsh2			lsh3			lsh4			ltoe			SBIKE			LBIKE			RBIKE			
		X1	Y1	Z1	X2	Y2	Z2	X3	Y3	Z3	X4	Y4	Z4	X5	Y5	Z5	X6	Y6	Z6	X7	Y7	Z7	X8	Y8	Z8	X9	Y9	Z9	X10	Y10	Z10	X11	Y11	Z11	X12	Y12	Z12	X13	Y13	Z13	X14	Y14	Z14	X15	Y15	Z15	X16	Y16	Z16	X17	Y17	Z17	X18	Y18	Z18	X19	Y19	Z19	X20	Y20	Z20	X21	Y21	Z21	X22	Y22	Z22	X23	Y23	Z23	X24	Y24	Z24	X25	Y25	Z25	X26	Y26	Z26	X27	Y27	Z27	X28	Y28	Z28	X29	Y29	Z29	X30	Y30	Z30	X31	Y31	Z31	X32	Y32	Z32	X33	Y33	Z33	X34	Y34	Z34	X35	Y35	Z35	X36	Y36	Z36	X37	Y37	Z37	X38	Y38	Z38	X39	Y39	Z39	X40	Y40	Z40	X41	Y41	Z41	X42	Y42	Z42	X43	Y43	Z43	X44	Y44	Z44	X45	Y45	Z45	X46	Y46	Z46	X47	Y47	Z47	X48	Y48	Z48	X49	Y49	Z49	X50	Y50	Z50	
1750	8.7500	534.951297	1208.096285	-86.389692	515.897725	1204.327873	-432.465982	516.760644	1279.059186	-259.020969	475.826474	1152.074777	-252.584859	488.816677	1018.500445	74.933771	683.181774	907.002352	-12.074686	455.654203	1000.844378	-607.909120	655.622276	907.210379	-498.701600	20.169128	1131.170467	-209.112717	135.525218	1152.504180	-370.078228	169.637453	1117.860652	-71.468972	180.504792	1091.629318	-352.283847	211.126089	1070.172345	-101.032923	54.874604	1158.735770	-148.081830	44.316847	1173.700980	-254.279182	154.789031	977.453511	-39.778330	117.532816	1021.487425	-411.014276	259.238411	885.239280	-58.348713	334.110001	843.145847	-74.705778	373.750256	764.260526	-85.926764	353.795739	862.469637	-99.846107	409.511286	671.390438	-121.689883	379.470004	654.200032	-215.873004	330.787709	608.404956	-84.231539	287.757906	530.716890	-94.120629	212.479359	485.782659	-88.320959	305.552030	515.258662	-126.515097	142.378419	417.286860	-80.856415	144.060206	420.958786	-157.588501	66.972733	452.341565	-117.409846	209.600164	230.500182	-129.927987	152.243980	287.887069	-62.072090	234.736242	935.378511	-414.979778	316.133882	910.143173	-410.381562	336.021803	939.406707	-395.857236	376.972607	843.608617	-412.042994	446.400724	766.197592	-396.646083	464.627740	750.671494	-300.259965	349.924022	409.978700	-415.474116	363.370416	421.278033	-339.610983	279.449247	364.723666	-378.141576	452.378449	337.528310	-435.838142	416.573478	669.563588	-420.900019	416.948484	582.772990	-414.946574	372.622797	505.849362	-416.028565	442.044162	578.094389	-384.639296	539.547519	366.371917	-364.715896	-64.791367	852.829223	-239.888677	21.126185	83.974097	-442.140881	21.172569	83.951380	-43.884494	
1751	8.7550	533.810339	1207.734914	-85.189593	517.403579	1204.916073	-431.795342	516.529933	1279.789777	-256.288999	475.785273	1151.972882	-251.522507	487.929980	1016.997018	74.667831	683.147995	906.914152	-12.105983	455.985936	1002.219520	-607.696129	655.212129	907.230612	-498.541782	19.311671	1133.282315	-201.250621	134.798210	1150.653741	-371.926308	169.668339	1117.839381	-72.936823	180.606204	1090.557749	-353.986477	211.163964	1070.286498	-102.710227	54.451993	1158.012806	-149.565397	44.300357	1171.704379	-256.264561	156.450208	977.942122	-40.812866	116.284822	1016.827642	-412.202270	262.126068	888.046061	-60.025730	337.690698	847.367605	-76.848194	378.911029	769.392142	-87.513774	356.685552	867.082190	-101.936784	415.490067	677.148106	-123.153778	384.585087	659.871784	-217.064919	335.535020	615.038551	-85.253832	291.153406	538.189828	-94.887472	215.176056	494.469302	-88.757969	308.675917	522.166182	-127.218077	143.979671	427.519375	-80.986742	146.467248	430.910420	-157.164918	68.934351	463.835053	-116.935949	208.193523	239.735994	-129.977715	151.788275	297.942235	-62.091260	232.762495	929.872476	-416.632639	313.598008	903.049774	-412.190458	334.166049	931.892752	-398.229753	373.468708	835.472806	-412.976611	440.158493	756.421831	-396.967493	459.510342	741.940268	-301.492589	349.884415	398.873553	-415.538668	363.686314	410.343159	-340.017026	280.031328	353.396678	-378.108576	453.079925	326.572994	-435.675574	411.567981	659.971540	-422.152991	413.657873	573.125168	-415.961560	370.995871	495.334488	-416.586419	439.311570	569.111218	-386.275004	540.127762	355.574624	-364.566060	-64.773714	852.815587	-239.900943	21.131581	83.977529	-442.137617	21.173993	83.949726	-43.876417	
1752	8.7600	532.549549	1207.402635	-83.970635	519.133721	1205.703002	-430.718623	517.357629	1280.243811	-254.112237	475.760319	1151.878100	-250.386712	486.991454	1015.465532	74.410049	683.058309	906.730181	-12.082072	456.285738	1003.776872	-607.473363	654.849581	907.319530	-498.430548	20.002467	1128.867808	-211.517876	133.968559	1148.540173	-373.748679	169.594450	1117.938068	-74.480375	180.690220	1089.405811	-355.827629	211.218665	1070.522816	-104.342443	53.994939	1157.329924	-151.318877	44.297126	1169.971450	-258.947349	158.117920	978.551793	-41.921446	114.965191	1012.212473	-413.421044	264.854161	890.876906	-61.491560	341.355475	851.801451	-79.024060	383.953406	775.165276	-89.140743	359.537532	871.892672	-104.147441	421.502862	682.993567	-124.605773	389.935066	665.498561	-218.427732	340.520194	621.828079	-86.368974	294.812633	545.578073	-95.817302	218.224619	503.306007	-89.264528	312.137106	529.276217	-127.775780	145.959420	437.902183	-81.148739	148.554949	441.167011	-157.267031	72.367282	475.414731	-117.489909	207.616345	249.251502	-129.844322	151.914004	308.368435	-62.109913	230.618994	924.268970	-418.314016	311.018045	895.648429	-413.894781	332.169087	924.423340	-400.375894	369.341033	827.226113	-414.162875	434.530912	747.235920	-398.710708	455.006663	733.648805	-302.374024	349.328126	387.846086	-415.640873	363.275256	399.136453	-340.312423	280.002197	342.188519	-378.180529	453.121645	315.635013	-435.599182	406.355902	650.291900	-423.118345	410.072711	563.487390	-416.756521	368.838067	485.005357	-417.094553	436.030973	559.788433	-386.986980	540.168616	344.708685	-364.451155	-64.732679	852.806655	-239.939850	21.152159	83.969218	-442.138890	21.175449	83.943663	-43.889873	
1753	8.7650	531.250986	1207.097918	-82.647521	521.102510	1206.481008	-429.531364	517.780011	1280.285401	-252.734387	475.756536	1151.793340	-249.186538	486.036968	1013.944721	74.236478	683.133293	906.639599	-12.055668	456.775775	1005.149978	-607.212710	654.565765	907.228029	-498.260531	20.008472	1127.809694	-213.207577	133.329072	1146.217759	-375.621032	169.475272	1118.280487	-76.218701	180.852234	1088.178386	-357.691762	211.174263	1070.894873	-105.976441	53.626107	1156.719224	-153.402965	44.511707	1168.283974	-261.086490	159.720619	979.125787	-43.104153	113.710800	1007.802539	-414.739360	267.461590	894.110285	-63.127923	344.783697	856.721314	-80.824762	389.086724	781.014591	-90.879086	362.325134	877.085799	-106.147240	427.280530	689.255270	-126.095665	394.480141	671.171774	-219.563220	345.564518	628.905210	-87.714316	298.782047	553.382741	-96.669786	221.560926	512.312863	-89.807331	315.867928	536.728174	-128.622604	148.440875	448.253477	-81.392878	151.041411	451.523203	-157.387639	75.497205	486.900390	-117.401675	207.754069	259.036663	-129.849248	152.815953	318.766636	-62.120869	228.442568	918.773203	-420.221760	308.203463	888.384458	-415.432351	330.095945	916.708078	-402.289820	364.998513	818.724894	-415.208153	428.355813	737.941794	-399.668403	449.080412	724.024463	-302.642000	348.077504	376.947646	-415.773010	363.372352	389.011345	-341.454142	279.360179	331.085979	-378.166582	452.502640	304.587207	-435.475919	401.025746	640.615860	-423.968235	406.232623	554.111740	-417.763372	366.235749	474.747103	-417.522359	432.448948	550.356760	-387.525535	539.716242	333.665039	-364.221456	-64.702756	852.775036	-240.086694	21.170404	83.946120	-442.130093	21.182636	83.943740	-43.889815	
